<svg width="231" height="731" viewBox="0 0 231 731" fill="none" xmlns="http://www.w3.org/2000/svg">
<path d="M107.748 135.778C92.282 142.561 136.954 214.382 147.87 222.884L-2.06718e-05 340.802L-1.92088e-05 405.357L129.649 485.511C125.56 486.452 118.275 493.022 121.853 511.776C126.325 535.219 143.314 547.774 147.87 614.233C154.286 707.817 24.6002 683.129 -3.45286e-06 730.5L-1.78037e-05 494L-1.92088e-05 405.357L-2.06718e-05 340.802L-2.53579e-05 -4.39864e-05L8.99995 -2.49898e-05L181.5 -2.62903e-05C190 29.4999 191.441 20.0212 198.415 49.3462C205.388 78.6712 189.517 93.0086 172.706 103.814C155.895 114.619 122.109 129.479 107.748 135.778Z" fill="#FFB1A0"/>
<path d="M111.783 297.549C133.908 288.995 179.26 283.932 156.686 221.837C143.905 186.681 58.663 259.829 1.30095e-06 324.562L1.44677e-06 348.531C33.5448 330.294 79.161 309.544 111.783 297.549Z" fill="#EE8C76"/>
<path d="M120.687 488.989C132.298 488.449 156.898 476.574 139.942 442.946C121.678 406.727 54.8333 382.407 2.00928e-06 377.286L1.04547e-06 411.656C42.614 444.75 94.4203 483.154 120.687 488.989Z" fill="#EE8C76"/>
</svg>
