<svg width="1440" height="1429" viewBox="0 0 1440 1429" fill="none" xmlns="http://www.w3.org/2000/svg">
<path d="M1331.39 399.039C1349.96 307.728 1502.22 208.086 1576.03 169.679C1669.86 493.069 1832.14 1137.32 1730.58 1127.22C1603.63 1114.59 1556.75 1066.96 1439.52 993.155C1322.29 919.347 1308.17 513.177 1331.39 399.039Z" fill="#FFB1A0"/>
<path d="M1232.47 643.739C1221.95 532.951 1300.94 563.415 1341.75 592.495C1359.3 659.181 1389.96 801.727 1372.17 838.417C1354.39 875.106 1328.84 864.136 1318.29 854.065C1294.07 830.118 1242.99 754.527 1232.47 643.739Z" fill="#FFB1A0"/>
<path d="M1337.24 718.124C1338.24 715.602 1336.94 712.701 1334.34 711.644C1331.74 710.587 1328.82 711.775 1327.82 714.297L1337.24 718.124ZM1338.08 759.212L1342.15 756.388L1338.08 759.212ZM1312.44 766.237C1311.47 763.649 1308.56 762.266 1305.95 763.148C1303.34 764.03 1302.01 766.843 1302.99 769.432L1312.44 766.237ZM1327.82 714.297C1324.43 722.809 1320.83 744.128 1334.02 762.035L1342.15 756.388C1331.8 742.345 1334.52 724.967 1337.24 718.124L1327.82 714.297ZM1334.02 762.035C1336.88 765.916 1336.87 768.779 1336.15 770.67C1335.34 772.772 1333.26 774.723 1330.2 775.767C1327.17 776.798 1323.62 776.769 1320.46 775.397C1317.42 774.071 1314.36 771.333 1312.44 766.237L1302.99 769.432C1305.81 776.921 1310.76 781.894 1316.6 784.431C1322.32 786.921 1328.53 786.908 1333.75 785.133C1338.93 783.371 1343.58 779.696 1345.61 774.376C1347.72 768.846 1346.64 762.492 1342.15 756.388L1334.02 762.035Z" fill="#EE8C76"/>
<path d="M1320.59 614.872C1286.11 593.99 1228.21 583.551 1272.42 708.851" stroke="#EE8C76" stroke-width="10" stroke-linecap="round" stroke-linejoin="round"/>
<path d="M-170.6 851C-132.687 897.223 -79.8175 950.471 -17.3554 959.8C21.2748 965.569 56.2234 966.204 94.6446 959.8C117.79 955.943 143.024 942.735 157.578 923.889C176.598 899.26 194.161 871.833 203.8 842.111C217.436 800.065 238.028 774.485 273.845 746.289C287.097 735.856 311.892 734.485 327.533 731.889C359.099 726.65 400.941 717.341 430.645 734.2C458.101 749.784 478.179 781.357 490.733 809.4C499.98 830.054 503.448 869.001 531.978 873.756C545.241 875.966 567.142 868.671 577.489 865.222C612.907 853.416 649.586 839.265 681.667 819.889C706.833 804.69 701.931 763.028 700.867 737.933C699.787 712.47 694.782 673.256 665.489 664.689C641.657 657.719 534.179 632.221 530.556 671.267C525.727 723.304 560.611 780.638 600.956 810.822C640.166 840.157 692.248 833.804 738.022 833.222C772.033 832.79 817.253 821.434 844.511 847.445C885.05 886.129 895.021 930.796 887.889 985.756C874.708 1087.33 717.819 1060.25 670.645 1002.82C659.329 989.047 640.234 957.322 656.067 941.489C689.688 907.868 730.784 878.724 772.511 856.333C784.039 850.148 810.308 830.86 779.089 832.156C735.298 833.973 656.228 842.076 628.867 882.289C577.205 958.216 849.775 980.86 844.156 1062.91C835.427 1190.36 670.749 1212.99 576.778 1164.6C535.635 1143.41 513.769 1111.03 488.956 1074.29C475.133 1053.82 456.278 1025.38 429.222 1022.38C407.099 1019.92 391.325 1060.77 386.911 1076.07C377.899 1107.3 387.422 1160.62 414.289 1182.2C439.94 1202.81 493.934 1179.02 513.845 1160.69C547.866 1129.36 533.881 1057.82 508.156 1024.87C482.531 992.046 426.008 984.083 387.8 977.044C372.461 974.219 357.628 981.168 346.378 991.8C333.254 1004.2 331.422 1028.08 346.911 1039.98C394.559 1076.58 480.364 1002.27 489.489 955.889C495.708 924.277 454.31 883.289 431.711 866.645C410.567 851.071 378.49 866.709 360.244 881.044C351.101 888.229 353.945 903.697 363.445 909.311C412.784 938.466 492.108 937.911 545.845 927.445C631.183 910.823 667.922 835.341 686.289 758.2C698.66 706.243 707.008 673.175 767.356 658.289C852.89 637.19 981.917 636.371 1009.49 744.689C1025.86 809.018 1008.68 866.86 941.578 880.867C892.137 891.187 869.32 867.727 853.4 820.422C845.411 796.682 837.654 772.436 852.333 748.778C875.879 710.831 941.268 693.585 980.689 683.889C1053.59 665.957 1093.04 693.393 1152.07 730.822C1165.79 739.526 1196.33 750.965 1196.87 772.067C1197.24 786.522 1191.46 803.075 1189.76 817.578C1184.35 863.564 1120.46 897.554 1086.64 921.045C1043.69 950.888 997.929 972.956 944.422 972.956C878.036 972.956 813.065 951.885 746.378 950.2C737.622 949.979 719.368 945.594 720.422 954.289C722.056 967.764 730.289 982.997 736.422 994.645C757.212 1034.12 789.034 1044.37 831.889 1054.73C881.664 1066.78 949.157 1080.14 997.756 1054.73C1028.74 1038.54 1029.21 1015.14 1019.44 985.222C997.653 918.484 916.574 886.162 855.178 865.933C843.573 862.11 809.046 853.391 818.911 860.6C843.936 878.887 873.768 891.602 901.4 905.045C933.57 920.695 972.901 931.479 995.978 960.511C1006.37 973.583 1027.44 996.188 1019.62 1015.27C1006.29 1047.82 945.574 1055.92 918.111 1060.78C830.742 1076.23 718.443 1066.37 647.889 1006.02C625.758 987.093 621.096 967.052 624.778 938.289C633.181 872.642 719.545 843.917 772.333 821.489C851.099 788.024 936.681 773.845 978.733 688.689C990.683 664.491 969.155 658.386 949.044 652.244C932.72 647.259 882.958 636.779 898.556 643.711C943.163 663.537 1004.47 627.703 1041.13 606.733C1075.29 587.198 1091.78 565.762 1088.6 526.378C1087.2 508.963 1090.86 477.503 1080.07 463.444C1069.83 450.101 1047.68 447.308 1034.02 438.2C1028.63 434.607 1028.45 452.603 1028.33 454.733C1025.27 509.934 1117.17 516.58 1148.87 487.622C1172.24 466.268 1195.31 443.865 1208.78 414.733C1220.45 389.499 1213.38 375.771 1201.13 352.867C1189.15 330.444 1167 327.646 1144.24 318.733C1105.21 303.447 1072.5 278.81 1030.29 290.289C1009.32 295.992 963.505 299.914 950.467 320.511C931.628 350.271 947.349 377.865 965.933 402.644C1008.98 460.046 1060.94 568.14 960.778 605.311C943.406 611.758 915.339 613.294 898.2 614.2C863.789 616.019 820.739 621.794 786.733 612.778C746.823 602.196 707.932 552.483 686.645 519.622C672.264 497.424 652.937 468.534 681.845 450.467C711.048 432.215 762.384 408.394 798.111 416.333C834.792 424.485 887.43 446.77 893.933 489.044C896.594 506.338 887.668 525.621 875.8 537.756C860.834 553.058 830.69 556.896 820.333 576.156C791.308 630.132 876.725 674.104 917.045 675C940.635 675.524 967.193 665.47 988.511 656.333C1005.17 649.196 1003.5 635.914 1012.69 622.733C1030.81 596.73 1076.67 606.088 1100.69 615.978C1120.53 624.149 1125.4 636.042 1125.4 656.511C1125.4 688.082 1122.44 724.289 1157.4 737.4C1182.68 746.879 1206.84 751.8 1234.2 751.8C1258.34 751.8 1295.5 832.689 1326 772.067" stroke="#A81A1A" stroke-width="25" stroke-linecap="round" stroke-linejoin="round"/>
</svg>
