<svg width="1440" height="492" viewBox="0 0 1440 492" fill="none" xmlns="http://www.w3.org/2000/svg">
<path d="M1.50874e-05 193C12.1699 181.078 13.1676 185.252 26.6888 174.889C57.7181 151.106 127.548 201.472 155.622 174.178C167.587 162.545 175.555 85.6026 189.578 76.3999C229.924 49.9225 230.829 36.4695 278.467 30.1777C320.784 24.5885 364.79 49.5325 403.978 63.5999C472.389 88.1578 548.065 67.9019 607.178 31.7777C658.286 0.544623 749.917 8.06235 789.044 56.1332C810.608 82.6256 838.982 83.9493 871.178 76.3999C888.428 72.3549 908.06 67.7567 923.444 58.6221C932.904 53.0052 941.83 45.0223 952.6 41.911C995.793 29.4329 1077.71 35.5695 1089.49 89.5554C1091.76 99.9432 1091.18 117.34 1097.31 126.178C1105.45 137.902 1132.24 134.93 1143.89 132.755C1170.01 127.879 1198.2 112.036 1212.16 88.8443C1225.23 67.1166 1245.72 22.3554 1202.91 22.3554C1178.27 22.3554 1191.37 101.007 1194.02 111.6C1202.08 143.832 1240.61 167.552 1233.84 204.756C1224.05 258.643 1128.95 273.431 1086.29 267.867C1075.41 266.448 1007.29 256.186 1013.76 233.555C1023.2 200.499 1073.33 199.768 1098.02 210.444C1131.5 224.92 1146.09 256.623 1117.58 286.889C1069.13 338.308 990.327 325.184 927.711 312.489C852.688 297.278 779.012 275.929 704.067 260.222C679.264 255.024 656.661 256.413 631 257.2C609.619 257.856 577.526 253.154 556.511 261.644C520.795 276.075 466.957 329.992 474.733 371.867C482.205 412.098 516.892 411.499 551.889 413.289C577.742 414.611 606.76 420.832 626.911 401.733C644.62 384.95 664.364 363.988 674.911 341.644C694.224 300.732 655.378 277.404 621.756 263.955C573.194 244.531 521.177 247.098 470.467 255.244C440.7 260.027 419.306 264.258 400.422 287.955C379.647 314.027 357.696 344.885 327.711 360.667C304.527 372.869 276.409 377.133 250.378 375.067C218.014 372.498 205.224 355.401 193.311 327.244C187.68 313.934 181.104 304.472 189.578 291.511C202.975 271.021 225.27 250.714 248.6 242.267C295.306 225.356 363.067 250.452 368.778 304.133C374.261 355.676 333.467 375.735 304.778 410.8C291.323 427.245 281.304 442.344 293.4 462C311.304 491.093 376.406 475.206 401.844 465.378C442.574 449.641 468.033 426.204 514.2 425.2C572.501 423.933 622.593 441.169 681.311 424.133C722.726 412.118 745.823 387.634 775.533 359.067C797.471 337.973 831.923 340.712 859.444 346.622C890.966 353.392 896.937 359.49 920.244 379.689C947.33 403.163 982.527 407.774 1017.13 405.644C1089.3 401.203 1145.76 342.487 1107.8 273.378C1088.36 237.988 1055.71 232.914 1016.42 230.533C968.807 227.647 923.158 214.436 885.755 183.067C856.157 158.242 895.405 134.331 914.2 124.933C938.884 112.591 959.682 109.705 987.089 109.822C1012.98 109.932 1051.11 106.186 1072.42 124.4C1098.56 146.738 1109.48 182.075 1133.58 206.178C1158.53 231.126 1188.38 233.2 1221.76 233.2C1256.79 233.2 1264.84 224.355 1290.38 204.044C1307.46 190.455 1361.42 205.331 1378.56 209.378C1409.65 216.719 1413.11 239.361 1440 249" stroke="#A81A1A" stroke-width="25" stroke-linecap="round" stroke-linejoin="round"/>
</svg>
